Title: Roses à Crédit
Year: 2010 
Country: France
Audio: French
Genre: Drama / Romance
Runtime: 101 min
Source: HDRIP
Size: 948 MB
Directed by: Amos Gitai
Starring:
Lea Seydoux  ...  Marjoline
Gregoire Leprince-Ringuet  ...  Daniel
Catherine Jacob  ...  Mme Donzert
Pierre Arditi  ...  M. Georges
Maud Wyler  ...  Cecile
Valeria Bruni Tedeschi  ...  Suzette
Elsa Zylberstein  ...  La pharmacienne
Ariane Ascaride  ...  Le medecin

IMDB Link: http://www.imdb.com/title/tt1648187/                   


Plot: A young couple marry in France in the 1940s and the film follows the arc of their marriage over the next decade. As France recovers from the trauma of the war, the wife finds herself increasingly caught up in acquiring material possessions while the husband prefers a more traditional lifestyle. [IMDB]



General
Complete name                    : Roses.a.Credit.2010.HDRip.XviD.HORiZON-ArtSubs
Format                           : AVI
Format/Info                      : Audio Video Interleave
File size                        : 949 MiB
Duration                         : 1h 40mn
Overall bit rate                 : 1 321 Kbps
Writing application              : Lavf53.18.0

Video
ID                               : 0
Format                           : MPEG-4 Visual
Format profile                   : Simple@L1
Format settings, BVOP            : No
Format settings, QPel            : No
Format settings, GMC             : No warppoints
Format settings, Matrix          : Default (H.263)
Codec ID                         : DX50
Codec ID/Hint                    : DivX 5
Duration                         : 1h 40mn
Bit rate                         : 1 180 Kbps
Width                            : 704 pixels
Height                           : 400 pixels
Display aspect ratio             : 16:9
Frame rate                       : 29.970 fps
Color space                      : YUV
Chroma subsampling               : 4:2:0
Bit depth                        : 8 bits
Scan type                        : Progressive
Compression mode                 : Lossy
Bits/(Pixel*Frame)               : 0.140
Stream size                      : 847 MiB (89%)
Writing library                  : Lavc53.26.0

Audio
ID                               : 1
Format                           : MPEG Audio
Format version                   : Version 1
Format profile                   : Layer 3
Mode                             : Joint stereo
Codec ID                         : 55
Codec ID/Hint                    : MP3
Duration                         : 1h 40mn
Bit rate mode                    : Constant
Bit rate                         : 128 Kbps
Channel(s)                       : 2 channels
Sampling rate                    : 44.1 KHz
Compression mode                 : Lossy
Stream size                      : 92.0 MiB (10%)
Alignment                        : Aligned on interleaves
Interleave, duration             : 26 ms (0.78 video frame)
Interleave, preload duration     : 78 ms
Writing library                  : LAME3.98.4
